<?xml version="1.0" encoding="UTF-8" standalone="no" ?>
<!DOCTYPE svg PUBLIC "-//W3C//DTD SVG 1.1//EN" "http://www.w3.org/Graphics/SVG/1.1/DTD/svg11.dtd">
<svg xmlns="http://www.w3.org/2000/svg" xmlns:xlink="http://www.w3.org/1999/xlink" version="1.1" width="273.62795410156247" height="134.19879999999998" xml:space="preserve">
<desc>Created with Fabric.js 1.6.0-rc.1</desc>
<defs></defs>
<g style="stroke: none; stroke-width: 1; stroke-dasharray: none; stroke-linecap: butt; stroke-linejoin: miter; stroke-miterlimit: 10; fill: none; fill-rule: nonzero; opacity: 1;" transform="translate(10 9.999999999999993) scale(0.33 0.37)" >
  <path d="m 60.395 183.261 l 0 -4.437 c 0 0 6.155 -5.871 6.729 -5.871 c 0.573 0 5.726 3.58 6.299 4.724 c 0.572 1.146 0.716 5.727 0.716 5.727 l -13.744 -0.143 z" style="stroke: none; stroke-width: 1; stroke-dasharray: none; stroke-linecap: butt; stroke-linejoin: miter; stroke-miterlimit: 10; fill: #042238; fill-rule: nonzero; opacity: 1;" transform=" matrix(0.9921743448242483 0 0 0.9921743448242483 -118.16059526830233 -105.40839601162074) " stroke-linecap="round" />
  <path d="m 60.872 188.512 c 0 0 7.253 -3.533 12.788 0.381 l 0.669 7.635 c 0 0 -7.636 -2.098 -14.126 0.763 l 0.669 -8.779 z" style="stroke: none; stroke-width: 1; stroke-dasharray: none; stroke-linecap: butt; stroke-linejoin: miter; stroke-miterlimit: 10; fill: #042238; fill-rule: nonzero; opacity: 1;" transform=" matrix(0.9921743448242483 0 0 0.9921743448242483 -118.16059526830233 -105.40839601162074) " stroke-linecap="round" />
  <path d="m 60.776 203.398 c 0.095 -0.286 8.111 -4.581 13.839 -0.19 l 1.812 39.035 l -17.082 0 l 1.431 -38.845 z" style="stroke: none; stroke-width: 1; stroke-dasharray: none; stroke-linecap: butt; stroke-linejoin: miter; stroke-miterlimit: 10; fill: #042238; fill-rule: nonzero; opacity: 1;" transform=" matrix(0.9921743448242483 0 0 0.9921743448242483 -118.16059526830233 -105.40839601162074) " stroke-linecap="round" />
  <path d="m 57.674 198.509 c 0 0 10.953 -4.295 19.756 0.429 l 0.143 2.79 c 0 0 -10.307 -3.936 -18.969 0.573 l -0.93 -3.792 z" style="stroke: none; stroke-width: 1; stroke-dasharray: none; stroke-linecap: butt; stroke-linejoin: miter; stroke-miterlimit: 10; fill: #042238; fill-rule: nonzero; opacity: 1;" transform=" matrix(0.9921743448242483 0 0 0.9921743448242483 -118.16059526830233 -105.40839601162074) " stroke-linecap="round" />
  <polygon points="56.6,242.82 79.36,242.96 79.36,246.75 56.67,246.4 56.53,243.03 56.6,242.82 " style="stroke: none; stroke-width: 1; stroke-dasharray: none; stroke-linecap: butt; stroke-linejoin: miter; stroke-miterlimit: 10; fill: #042238; fill-rule: nonzero; opacity: 1;" transform="  matrix(0.9921743448242483 0 0 0.9921743448242483 -118.16059526830233 -105.40839601162074) "/>
  <path d="m 58.772 249.973 c 0.095 -0.286 10.02 -5.057 17.942 0.192 l 1.622 31.494 l 3.15 0.573 l -0.191 4.771 l -3.245 1.051 c 0 0 -7.54 -5.344 -19.374 -0.095 l -3.436 -1.719 l 0.095 -3.625 l 3.245 0.095 l 0.192 -32.737 z" style="stroke: none; stroke-width: 1; stroke-dasharray: none; stroke-linecap: butt; stroke-linejoin: miter; stroke-miterlimit: 10; fill: #042238; fill-rule: nonzero; opacity: 1;" transform=" matrix(0.9921743448242483 0 0 0.9921743448242483 -118.16059526830233 -105.40839601162074) " stroke-linecap="round" />
  <ellipse cx="243.255" cy="125.891" rx="2.505" ry="2.471" style="stroke: none; stroke-width: 1; stroke-dasharray: none; stroke-linecap: butt; stroke-linejoin: miter; stroke-miterlimit: 10; fill: #042238; fill-rule: nonzero; opacity: 1;" transform=" matrix(0.9921743448242483 0 0 0.9921743448242483 -118.16059526830233 -105.40839601162074) "/>
  <ellipse cx="243.315" cy="131.456" rx="1.825" ry="1.896" style="stroke: none; stroke-width: 1; stroke-dasharray: none; stroke-linecap: butt; stroke-linejoin: miter; stroke-miterlimit: 10; fill: #042238; fill-rule: nonzero; opacity: 1;" transform=" matrix(0.9921743448242483 0 0 0.9921743448242483 -118.16059526830233 -105.40839601162074) "/>
  <ellipse cx="243.298" cy="117.712" rx="1.718" ry="1.682" style="stroke: none; stroke-width: 1; stroke-dasharray: none; stroke-linecap: butt; stroke-linejoin: miter; stroke-miterlimit: 10; fill: #042238; fill-rule: nonzero; opacity: 1;" transform=" matrix(0.9921743448242483 0 0 0.9921743448242483 -118.16059526830233 -105.40839601162074) "/>
  <ellipse cx="243.244" cy="110.837" rx="1.424" ry="1.657" style="stroke: none; stroke-width: 1; stroke-dasharray: none; stroke-linecap: butt; stroke-linejoin: miter; stroke-miterlimit: 10; fill: #042238; fill-rule: nonzero; opacity: 1;" transform=" matrix(0.9921743448242483 0 0 0.9921743448242483 -118.16059526830233 -105.40839601162074) "/>
  <rect x="242.63" y="108.39" rx="0" ry="0" width="1.29" height="29.7" style="stroke: none; stroke-width: 1; stroke-dasharray: none; stroke-linecap: butt; stroke-linejoin: miter; stroke-miterlimit: 10; fill: #042238; fill-rule: nonzero; opacity: 1;" transform=" matrix(0.9921743448242483 0 0 0.9921743448242483 -118.16059526830233 -105.40839601162074) "/>
  <path d="m 223.45 150.48 c 0 0 17.823 -12.025 19.899 -16.106 c 0 0 17.68 13.171 20.543 14.102 c 2.863 0.931 0.429 1.002 0.429 1.002 c 0 0 -12.239 -5.298 -40.871 1.002 z" style="stroke: none; stroke-width: 1; stroke-dasharray: none; stroke-linecap: butt; stroke-linejoin: miter; stroke-miterlimit: 10; fill: #042238; fill-rule: nonzero; opacity: 1;" transform=" matrix(0.9921743448242483 0 0 0.9921743448242483 -118.16059526830233 -105.40839601162074) " stroke-linecap="round" />
  <path d="m 198.875 205.213 c -0.095 -0.286 -1.623 -11.834 -1.623 -11.834 c 0 0 0.0001 -10.974 2.768 -16.318 c 2.767 -5.346 6.681 -11.263 10.021 -14.509 c 3.34 -3.242 13.552 -10.401 15.079 -11.642 c 1.528 -1.239 34.359 -2.958 37.603 -0.286 c 3.245 2.673 8.971 5.82 10.785 7.635 c 1.813 1.814 8.017 5.536 10.021 9.066 c 2.005 3.532 4.867 7.063 5.727 11.168 c 0.858 4.103 1.909 8.588 1.812 13.169 c -0.095 4.581 0 6.681 -0.382 10.022 c -0.381 3.339 -0.668 3.53 -0.953 4.295 c -0.286 0.763 -4.772 -3.532 -9.163 -4.678 c -4.39 -1.146 -16.892 -1.049 -18.992 -1.24 c -2.1 -0.192 -10.021 -0.86 -13.935 -0.765 c -3.912 0.097 -18.992 1.241 -21.568 1.432 c -2.577 0.192 -15.939 1.432 -18.802 2.291 c -2.863 0.858 -8.398 2.387 -8.398 2.387 l 0 -0.193 l 0 0 z" style="stroke: none; stroke-width: 1; stroke-dasharray: none; stroke-linecap: butt; stroke-linejoin: miter; stroke-miterlimit: 10; fill: #042238; fill-rule: nonzero; opacity: 1;" transform=" matrix(0.9921743448242483 0 0 0.9921743448242483 -118.16059526830233 -105.40839601162074) " stroke-linecap="round" />
  <path d="m 295.648 286.145 l 17.56 0 l -0.189 -12.789 c 0 0 -4.581 -3.627 -7.444 -4.2 c -2.862 -0.571 -8.59 5.919 -9.926 7.253 c -1.337 1.336 -0.0001 9.736 -0.0001 9.736 z" style="stroke: none; stroke-width: 1; stroke-dasharray: none; stroke-linecap: butt; stroke-linejoin: miter; stroke-miterlimit: 10; fill: #042238; fill-rule: nonzero; opacity: 1;" transform=" matrix(0.9921743448242483 0 0 0.9921743448242483 -118.16059526830233 -105.40839601162074) " stroke-linecap="round" />
  <path d="m 329.673 286.479 l 11.31 0.144 l 0 -18.61 c 0 0 -1.861 -4.439 -2.435 -5.01 c -0.572 -0.574 -9.449 17.178 -8.875 23.476 z" style="stroke: none; stroke-width: 1; stroke-dasharray: none; stroke-linecap: butt; stroke-linejoin: miter; stroke-miterlimit: 10; fill: #042238; fill-rule: nonzero; opacity: 1;" transform=" matrix(0.9921743448242483 0 0 0.9921743448242483 -118.16059526830233 -105.40839601162074) " stroke-linecap="round" />
  <path d="m 286.725 224.204 c -0.1 0.19 -0.215 -6.44 0.716 -7.945 c 0.932 -1.501 9.949 -10.236 12.527 -12.023 l 0.286 -9.806 l 0.645 -0.144 l 0.572 9.95 c 0 0 9.948 4.938 12.384 9.377 c 2.432 4.437 2.289 9.09 2.361 10.449 c 0.07 1.36 -28.202 -2.29 -29.491 0.142 z" style="stroke: none; stroke-width: 1; stroke-dasharray: none; stroke-linecap: butt; stroke-linejoin: miter; stroke-miterlimit: 10; fill: #042238; fill-rule: nonzero; opacity: 1;" transform=" matrix(0.9921743448242483 0 0 0.9921743448242483 -118.16059526830233 -105.40839601162074) " stroke-linecap="round" />
  <path d="m 148.436 232.724 c 0 -0.215 0.072 -11.741 0.072 -11.741 c 0 0 -0.86 -0.142 -1.003 -0.429 c -0.143 -0.286 0.43 -2.719 1.576 -4.007 c 1.145 -1.288 3.507 2.935 3.436 4.079 c -0.072 1.146 -1.862 0.288 -1.862 0.288 l -0.143 11.953 l -2.076 -0.143 z" style="stroke: none; stroke-width: 1; stroke-dasharray: none; stroke-linecap: butt; stroke-linejoin: miter; stroke-miterlimit: 10; fill: #042238; fill-rule: nonzero; opacity: 1;" transform=" matrix(0.9921743448242483 0 0 0.9921743448242483 -118.16059526830233 -105.40839601162074) " stroke-linecap="round" />
  <path d="m 154.376 233.224 c 0.358 0 2.291 0 2.291 0 l -0.286 -4.581 l 0.93 -0.07 c 0 0 -1.646 -3.437 -1.861 -4.153 c -0.215 -0.715 -2.577 3.581 -2.433 4.08 c 0.143 0.503 1.359 0.429 1.359 0.429 l 0 4.295 l 0 0 z" style="stroke: none; stroke-width: 1; stroke-dasharray: none; stroke-linecap: butt; stroke-linejoin: miter; stroke-miterlimit: 10; fill: #042238; fill-rule: nonzero; opacity: 1;" transform=" matrix(0.9921743448242483 0 0 0.9921743448242483 -118.16059526830233 -105.40839601162074) " stroke-linecap="round" />
  <path d="m 205.842 217.621 c 0 0 46.811 -8.017 77.59 -1.145 l 0 8.874 l -77.304 2.146 l -0.286 -9.875 z" style="stroke: none; stroke-width: 1; stroke-dasharray: none; stroke-linecap: butt; stroke-linejoin: miter; stroke-miterlimit: 10; fill: #042238; fill-rule: nonzero; opacity: 1;" transform=" matrix(0.9921743448242483 0 0 0.9921743448242483 -118.16059526830233 -105.40839601162074) " stroke-linecap="round" />
  <path d="m 220.444 247.826 l 0.287 25.339 l 1.861 0.286 c 0 0 2.004 -7.015 3.436 -8.303 c 1.432 -1.288 15.604 -8.446 17.895 -10.308 c 2.29 -1.861 0.859 -0.573 0.859 -0.573 c 0 0 12.312 5.869 15.316 7.444 c 3.007 1.576 6.586 6.729 7.303 8.734 c 0.716 2.003 0.716 2.003 0.716 2.003 l 1.145 -0.285 l 0 -24.91 l -48.818 0.573 z" style="stroke: none; stroke-width: 1; stroke-dasharray: none; stroke-linecap: butt; stroke-linejoin: miter; stroke-miterlimit: 10; fill: #042238; fill-rule: nonzero; opacity: 1;" transform=" matrix(0.9921743448242483 0 0 0.9921743448242483 -118.16059526830233 -105.40839601162074) " stroke-linecap="round" />
  <path d="m 238.769 286.193 c 0 0 8.016 -2.434 10.02 -4.583 c 2.005 -2.146 4.582 -0.429 6.012 0.144 c 1.433 0.573 12.599 6.729 12.599 6.729 l 1.574 0.573 l -0.287 33.928 l -40.227 0.571 l -0.287 -24.908 c 0 0 1.002 -4.866 3.436 -7.3 c 2.434 -2.434 6.729 -5.013 7.16 -5.154 z" style="stroke: none; stroke-width: 1; stroke-dasharray: none; stroke-linecap: butt; stroke-linejoin: miter; stroke-miterlimit: 10; fill: #042238; fill-rule: nonzero; opacity: 1;" transform=" matrix(0.9921743448242483 0 0 0.9921743448242483 -118.16059526830233 -105.40839601162074) " stroke-linecap="round" />
  <path d="m 286.868 231.745 l -0.095 10.976 l 3.339 -0.286 c 0 0 -0.762 -10.31 0 -10.883 c 0.764 -0.57 -3.244 0.193 -3.244 0.193 z" style="stroke: none; stroke-width: 1; stroke-dasharray: none; stroke-linecap: butt; stroke-linejoin: miter; stroke-miterlimit: 10; fill: #042238; fill-rule: nonzero; opacity: 1;" transform=" matrix(0.9921743448242483 0 0 0.9921743448242483 -118.16059526830233 -105.40839601162074) " stroke-linecap="round" />
  <path d="m 294.6 242.243 l 3.626 0.095 l -0.19 -7.825 c 0 0 1.813 -3.627 3.816 -4.198 c 2.005 -0.573 3.149 2.193 3.914 3.625 c 0.763 1.432 0.477 8.398 0.477 8.398 l 3.437 0.097 l 0.095 -5.344 l 2.768 0.286 c 0 0 -2.768 -7.063 -3.913 -7.542 c -1.145 -0.476 -12.884 -0.093 -12.884 -0.093 c 0 0 -2.004 1.62 -2.958 1.62 c -0.955 0 1.622 3.056 1.813 3.819 c 0.189 0.764 -0.0001 7.062 -0.0001 7.062 z" style="stroke: none; stroke-width: 1; stroke-dasharray: none; stroke-linecap: butt; stroke-linejoin: miter; stroke-miterlimit: 10; fill: #042238; fill-rule: nonzero; opacity: 1;" transform=" matrix(0.9921743448242483 0 0 0.9921743448242483 -118.16059526830233 -105.40839601162074) " stroke-linecap="round" />
  <path d="m 316.55 233.75 c -0.095 -0.286 0 8.588 0 8.588 l -3.436 0.097 l 0.19 -4.678 c 0.0001 0.0001 3.341 -3.721 3.246 -4.007 z" style="stroke: none; stroke-width: 1; stroke-dasharray: none; stroke-linecap: butt; stroke-linejoin: miter; stroke-miterlimit: 10; fill: #042238; fill-rule: nonzero; opacity: 1;" transform=" matrix(0.9921743448242483 0 0 0.9921743448242483 -118.16059526830233 -105.40839601162074) " stroke-linecap="round" />
  <polygon points="321.32,226.12 318.46,229.17 319.7,229.55 320.08,242.82 322.27,242.82 322.18,231.84 322.18,229.26 323.8,228.98 321.32,226.12 " style="stroke: none; stroke-width: 1; stroke-dasharray: none; stroke-linecap: butt; stroke-linejoin: miter; stroke-miterlimit: 10; fill: #042238; fill-rule: nonzero; opacity: 1;" transform="  matrix(0.9921743448242483 0 0 0.9921743448242483 -118.16059526830233 -105.40839601162074) "/>
  <path d="m 286.296 243.96 l 35.503 -0.571 c 0 0 20.519 2.291 21.378 3.244 c 0.86 0.956 1.241 2.291 1.241 2.291 l -58.981 -0.383 l -0.285 -4.483 l 1.144 -0.098 z" style="stroke: none; stroke-width: 1; stroke-dasharray: none; stroke-linecap: butt; stroke-linejoin: miter; stroke-miterlimit: 10; fill: #042238; fill-rule: nonzero; opacity: 1;" transform=" matrix(0.9921743448242483 0 0 0.9921743448242483 -118.16059526830233 -105.40839601162074) " stroke-linecap="round" />
  <path d="m 415.996 176.963 l 0 -4.437 c 0 0 6.156 -5.871 6.729 -5.871 c 0.573 0 5.727 3.581 6.299 4.725 c 0.573 1.146 0.716 5.727 0.716 5.727 l -13.744 -0.144 z" style="stroke: none; stroke-width: 1; stroke-dasharray: none; stroke-linecap: butt; stroke-linejoin: miter; stroke-miterlimit: 10; fill: #042238; fill-rule: nonzero; opacity: 1;" transform=" matrix(0.9921743448242483 0 0 0.9921743448242483 -118.16059526830233 -105.40839601162074) " stroke-linecap="round" />
  <path d="m 416.473 182.214 c 0 0 7.254 -3.534 12.79 0.379 l 0.668 7.636 c 0 0 -7.635 -2.1 -14.125 0.764 l 0.667 -8.779 z" style="stroke: none; stroke-width: 1; stroke-dasharray: none; stroke-linecap: butt; stroke-linejoin: miter; stroke-miterlimit: 10; fill: #042238; fill-rule: nonzero; opacity: 1;" transform=" matrix(0.9921743448242483 0 0 0.9921743448242483 -118.16059526830233 -105.40839601162074) " stroke-linecap="round" />
  <path d="m 416.378 197.101 c 0.095 -0.288 8.112 -4.581 13.838 -0.19 l 1.813 39.035 l -17.083 0 l 1.432 -38.845 z" style="stroke: none; stroke-width: 1; stroke-dasharray: none; stroke-linecap: butt; stroke-linejoin: miter; stroke-miterlimit: 10; fill: #042238; fill-rule: nonzero; opacity: 1;" transform=" matrix(0.9921743448242483 0 0 0.9921743448242483 -118.16059526830233 -105.40839601162074) " stroke-linecap="round" />
  <path d="m 413.275 192.209 c 0 0 10.952 -4.295 19.757 0.43 l 0.143 2.792 c 0 0 -10.308 -3.936 -18.969 0.573 l -0.931 -3.795 z" style="stroke: none; stroke-width: 1; stroke-dasharray: none; stroke-linecap: butt; stroke-linejoin: miter; stroke-miterlimit: 10; fill: #042238; fill-rule: nonzero; opacity: 1;" transform=" matrix(0.9921743448242483 0 0 0.9921743448242483 -118.16059526830233 -105.40839601162074) " stroke-linecap="round" />
  <polygon points="412.2,236.52 434.96,236.66 434.96,240.45 412.27,240.1 412.13,236.73 412.2,236.52 " style="stroke: none; stroke-width: 1; stroke-dasharray: none; stroke-linecap: butt; stroke-linejoin: miter; stroke-miterlimit: 10; fill: #042238; fill-rule: nonzero; opacity: 1;" transform="  matrix(0.9921743448242483 0 0 0.9921743448242483 -118.16059526830233 -105.40839601162074) "/>
  <path d="m 414.374 243.675 c 0.096 -0.286 10.021 -5.059 17.942 0.19 l 1.622 31.496 l 3.149 0.573 l -0.19 4.771 l -3.246 1.049 c 0 0 -7.539 -5.344 -19.373 -0.095 l -3.437 -1.717 l 0.097 -3.626 l 3.244 0.095 l 0.192 -32.736 z" style="stroke: none; stroke-width: 1; stroke-dasharray: none; stroke-linecap: butt; stroke-linejoin: miter; stroke-miterlimit: 10; fill: #042238; fill-rule: nonzero; opacity: 1;" transform=" matrix(0.9921743448242483 0 0 0.9921743448242483 -118.16059526830233 -105.40839601162074) " stroke-linecap="round" />
  <path d="m 413.801 283.664 c 0 0 11.548 -5.249 20.71 0.19 l 3.627 71.77 c 0 0 -14.888 -16.129 -18.037 -17.275 c -3.15 -1.145 -9.64 -1.812 -9.831 -1.812 c -0.19 0 2.101 -2.482 2.101 -2.482 l 1.431 -50.199 l 0 -0.192 l -0.0001 0 z" style="stroke: none; stroke-width: 1; stroke-dasharray: none; stroke-linecap: butt; stroke-linejoin: miter; stroke-miterlimit: 10; fill: #042238; fill-rule: nonzero; opacity: 1;" transform=" matrix(0.9921743448242483 0 0 0.9921743448242483 -118.16059526830233 -105.40839601162074) " stroke-linecap="round" />
  <path d="m 372.977 221.7 l -0.143 -1.216 l 2.435 0 c 0 0 -0.216 -3.722 -0.145 -4.008 c 0.072 -0.287 4.439 -4.081 4.439 -4.081 l 0.357 -5.725 l 0.644 0.07 l 0.43 5.871 c 0 0 4.867 2.147 4.939 7.015 c 0.071 4.866 0 0.571 0 0.571 l 2.004 0.216 l 0.071 0.858 c 0.0001 0 -13.885 0.142 -15.031 0.429 z" style="stroke: none; stroke-width: 1; stroke-dasharray: none; stroke-linecap: butt; stroke-linejoin: miter; stroke-miterlimit: 10; fill: #042238; fill-rule: nonzero; opacity: 1;" transform=" matrix(0.9921743448242483 0 0 0.9921743448242483 -118.16059526830233 -105.40839601162074) " stroke-linecap="round" />
  <path d="m 375.124 222.703 c 0 0 7.588 -1.576 10.559 0.035 l 0.215 7.623 l -10.951 0.108 l 0.177 -7.766 z" style="stroke: none; stroke-width: 1; stroke-dasharray: none; stroke-linecap: butt; stroke-linejoin: miter; stroke-miterlimit: 10; fill: #042238; fill-rule: nonzero; opacity: 1;" transform=" matrix(0.9921743448242483 0 0 0.9921743448242483 -118.16059526830233 -105.40839601162074) " stroke-linecap="round" />
  <path d="m 372.69 231.221 c 0 0 14.745 -0.645 15.318 0.035 l 0.036 1.144 l -2.147 1.541 l 1.038 30.312 l -12.812 0.25 l 0.787 -28.238 l 0.071 -1.539 l -1.323 -1.36 l -0.753 -0.357 l -0.215 -1.788 z" style="stroke: none; stroke-width: 1; stroke-dasharray: none; stroke-linecap: butt; stroke-linejoin: miter; stroke-miterlimit: 10; fill: #042238; fill-rule: nonzero; opacity: 1;" transform=" matrix(0.9921743448242483 0 0 0.9921743448242483 -118.16059526830233 -105.40839601162074) " stroke-linecap="round" />
  <path d="m 371.868 265.255 c 0 0 17.68 -0.536 18.108 0.037 l -0.179 2.933 l -2.219 0.501 l 0.93 26.985 l -14.851 -0.035 l 0.5 -26.95 l -2.146 -0.608 l -0.108 -2.756" style="stroke: none; stroke-width: 1; stroke-dasharray: none; stroke-linecap: butt; stroke-linejoin: miter; stroke-miterlimit: 10; fill: #042238; fill-rule: nonzero; opacity: 1;" transform=" matrix(0.9921743448242483 0 0 0.9921743448242483 -118.16059526830233 -105.40839601162074) " stroke-linecap="round" />
  <path d="m 178.643 301.583 c 0.644 0.144 6.011 -6.729 9.089 -6.013 c 3.078 0.715 9.233 6.728 9.233 6.728 c 0 0 0.573 7.015 0 6.799 c -0.572 -0.213 -6.656 -3.866 -6.871 -3.362 c -0.215 0.499 -2.291 1.503 -4.366 1.933 c -2.075 0.43 -4.724 4.295 -4.724 4.295 l 0 9.76 l 23.025 -0.456 l -0.955 -77.305 l -34.167 0.381 l -24.051 2.673 l 1.337 75.396 l 31.822 -0.629 l 0.628 -20.2 z m -20.806 -40.251 c 2.863 -0.573 4.58 4.007 5.917 5.536 c 1.336 1.525 0 7.635 0 7.635 l -3.626 -3.437 c 0 0 -3.436 -1.145 -4.2 -1.337 c -0.764 -0.192 -3.817 -1.336 -3.817 -1.336 c 0 0 2.863 -6.491 5.726 -7.061 z m 6.632 48.266 c 0 0 -1.145 -2.36 -2.792 -3.291 c -1.646 -0.932 -3.436 -0.288 -5.296 -1.076 c -1.861 -0.785 -3.508 -3.075 -3.508 -3.075 c 0 0 2.291 -3.938 5.01 -5.369 c 0 0 4.868 2.075 6.084 5.154 c 1.218 3.078 0.502 7.657 0.502 7.657 z m 13.219 -42.159 c 0.572 -4.008 9.925 -8.208 9.925 -8.208 c 6.49 3.435 9.163 8.588 9.163 8.588 c 0 0 0.381 6.3 -0.191 6.109 c -0.573 -0.192 -2.672 -3.819 -6.872 -3.246 c -4.199 0.571 -9.353 7.254 -9.353 7.254 l -0.19 9.927 l -2.481 -0.383 c -0.0001 0.0001 -0.574 -16.034 -0.0001 -20.041 z" style="stroke: none; stroke-width: 1; stroke-dasharray: none; stroke-linecap: butt; stroke-linejoin: miter; stroke-miterlimit: 10; fill: #042238; fill-rule: nonzero; opacity: 1;" transform=" matrix(0.9921743448242483 0 0 0.9921743448242483 -118.16059526830233 -105.40839601162074) " stroke-linecap="round" />
  <path d="m 209.564 237.519 l 0.859 75.014 l 3.866 0.573 l 2.147 -69.287 l 57.262 -0.144 l 1.146 45.094 l 2.147 3.722 c 0 0 0.286 13.886 -0.144 14.888 c -0.43 1.002 1.862 4.295 1.862 4.295 l 1.146 -0.142 l 0.143 -74.443 l -70.434 0.43 z" style="stroke: none; stroke-width: 1; stroke-dasharray: none; stroke-linecap: butt; stroke-linejoin: miter; stroke-miterlimit: 10; fill: #042238; fill-rule: nonzero; opacity: 1;" transform=" matrix(0.9921743448242483 0 0 0.9921743448242483 -118.16059526830233 -105.40839601162074) " stroke-linecap="round" />
  <polygon points="207.56,317.69 207.42,322.13 219.3,322.41 219.59,317.97 207.56,317.69 " style="stroke: none; stroke-width: 1; stroke-dasharray: none; stroke-linecap: butt; stroke-linejoin: miter; stroke-miterlimit: 10; fill: #042238; fill-rule: nonzero; opacity: 1;" transform="  matrix(0.9921743448242483 0 0 0.9921743448242483 -118.16059526830233 -105.40839601162074) "/>
  <polygon points="272.12,317.26 284.15,316.83 284.15,321.26 272.12,321.7 272.12,317.26 " style="stroke: none; stroke-width: 1; stroke-dasharray: none; stroke-linecap: butt; stroke-linejoin: miter; stroke-miterlimit: 10; fill: #042238; fill-rule: nonzero; opacity: 1;" transform="  matrix(0.9921743448242483 0 0 0.9921743448242483 -118.16059526830233 -105.40839601162074) "/>
  <polygon points="288.3,317.69 292.02,317.55 292.17,321.55 288.3,321.7 288.3,317.69 " style="stroke: none; stroke-width: 1; stroke-dasharray: none; stroke-linecap: butt; stroke-linejoin: miter; stroke-miterlimit: 10; fill: #042238; fill-rule: nonzero; opacity: 1;" transform="  matrix(0.9921743448242483 0 0 0.9921743448242483 -118.16059526830233 -105.40839601162074) "/>
  <polygon points="285.01,251.55 285.58,320.26 286.58,320.55 287.15,251.55 285.01,251.55 " style="stroke: none; stroke-width: 1; stroke-dasharray: none; stroke-linecap: butt; stroke-linejoin: miter; stroke-miterlimit: 10; fill: #042238; fill-rule: nonzero; opacity: 1;" transform="  matrix(0.9921743448242483 0 0 0.9921743448242483 -118.16059526830233 -105.40839601162074) "/>
  <polygon points="326.09,245.11 335.54,231.22 346.13,231.65 346.13,249.4 326.09,245.11 " style="stroke: none; stroke-width: 1; stroke-dasharray: none; stroke-linecap: butt; stroke-linejoin: miter; stroke-miterlimit: 10; fill: #042238; fill-rule: nonzero; opacity: 1;" transform="  matrix(0.9921743448242483 0 0 0.9921743448242483 -118.16059526830233 -105.40839601162074) "/>
  <polygon points="187.95,196 189.24,196.07 189.45,205.45 187.73,205.45 187.95,196 " style="stroke: none; stroke-width: 1; stroke-dasharray: none; stroke-linecap: butt; stroke-linejoin: miter; stroke-miterlimit: 10; fill: #042238; fill-rule: nonzero; opacity: 1;" transform="  matrix(0.9921743448242483 0 0 0.9921743448242483 -118.16059526830233 -105.40839601162074) "/>
  <path d="m 174.132 226.782 l 0.072 -8.23 c 0 0 14.102 -13.099 14.316 -14.459 c 0.214 -1.36 0.429 0.072 0.429 0.072 c 0 0 10.164 7.729 12.168 10.951 c 2.005 3.223 2.005 3.223 2.005 3.223 l -0.144 8.301 l -28.846 0.142 z" style="stroke: none; stroke-width: 1; stroke-dasharray: none; stroke-linecap: butt; stroke-linejoin: miter; stroke-miterlimit: 10; fill: #042238; fill-rule: nonzero; opacity: 1;" transform=" matrix(0.9921743448242483 0 0 0.9921743448242483 -118.16059526830233 -105.40839601162074) " stroke-linecap="round" />
  <path d="m 202.12 232.151 l -0.072 -1.791 l 1.217 0 l -0.214 -2.934 l -29.419 0.07 c 0 0 -2.577 0.573 -3.436 1.647 l 3.936 3.506 l 0.072 10.595 l 28.99 -0.072 l -0.071 -10.953 l -1.003 -0.068 z m -9.807 10.092 l -7.874 0.072 c 0 0 -0.071 -5.583 0 -6.514 c 0.072 -0.93 3.579 -4.009 3.579 -4.009 c 2.936 0.501 3.938 3.724 3.938 3.724 c 0 0 -1.146 -0.861 -2.291 -1.075 c -1.145 -0.215 -3.437 1.717 -3.437 1.717 l 0.216 1.717 l 6.084 0.072 l -0.215 4.296 z" style="stroke: none; stroke-width: 1; stroke-dasharray: none; stroke-linecap: butt; stroke-linejoin: miter; stroke-miterlimit: 10; fill: #042238; fill-rule: nonzero; opacity: 1;" transform=" matrix(0.9921743448242483 0 0 0.9921743448242483 -118.16059526830233 -105.40839601162074) " stroke-linecap="round" />
  <path d="m 144.141 233.688 l 2.434 -4.794 l 1.754 4.295 l -0.072 -0.538 l 8.375 0.359 l 0.214 3.149 l 4.367 4.188 l 0.178 2.504 l 1.611 1.109 l 0.071 1.432 l -7.659 1.647 l -10.378 0.752 l 0.322 -13.101 c 0 0 -1.146 -0.678 -1.217 -1.002 z" style="stroke: none; stroke-width: 1; stroke-dasharray: none; stroke-linecap: butt; stroke-linejoin: miter; stroke-miterlimit: 10; fill: #042238; fill-rule: nonzero; opacity: 1;" transform=" matrix(0.9921743448242483 0 0 0.9921743448242483 -118.16059526830233 -105.40839601162074) " stroke-linecap="round" />
  <path d="m 169.336 227.714 c 0 0 -2.314 3.028 -2.314 3.316 c 0 0.286 0.025 0.548 0.025 0.548 l 1.192 0.049 l -0.023 13.646 l 2.313 0.095 l 0.072 -13.791 c 0 0 0.955 -0.262 1.074 -0.357 c 0.12 -0.096 -2.314 -3.482 -2.339 -3.506 z" style="stroke: none; stroke-width: 1; stroke-dasharray: none; stroke-linecap: butt; stroke-linejoin: miter; stroke-miterlimit: 10; fill: #042238; fill-rule: nonzero; opacity: 1;" transform=" matrix(0.9921743448242483 0 0 0.9921743448242483 -118.16059526830233 -105.40839601162074) " stroke-linecap="round" />
  <polygon points="346.13,250.83 347.42,320.12 341.7,320.26 342.84,253.55 343.7,251.83 346.13,250.83 " style="stroke: none; stroke-width: 1; stroke-dasharray: none; stroke-linecap: butt; stroke-linejoin: miter; stroke-miterlimit: 10; fill: #042238; fill-rule: nonzero; opacity: 1;" transform="  matrix(0.9921743448242483 0 0 0.9921743448242483 -118.16059526830233 -105.40839601162074) "/>
  <path d="m 340.838 256.558 l 0.431 -3.578 l -19.04 -1.432 l 0.858 69.574 l 4.582 0 l -0.287 -28.344 l 13.456 0.144 l -0.285 -4.153 l -13.457 -0.715 l -0.286 -23.478 c 0 0 5.439 -4.868 6.441 -5.01 c 1.002 -0.144 1.002 -3.151 1.002 -3.151 l 6.585 0.143 z" style="stroke: none; stroke-width: 1; stroke-dasharray: none; stroke-linecap: butt; stroke-linejoin: miter; stroke-miterlimit: 10; fill: #042238; fill-rule: nonzero; opacity: 1;" transform=" matrix(0.9921743448242483 0 0 0.9921743448242483 -118.16059526830233 -105.40839601162074) " stroke-linecap="round" />
  <path d="m 339.406 300.508 c 0 0 -9.733 10.881 -9.161 20.471 l 9.878 0 l -0.717 -20.471 z" style="stroke: none; stroke-width: 1; stroke-dasharray: none; stroke-linecap: butt; stroke-linejoin: miter; stroke-miterlimit: 10; fill: #042238; fill-rule: nonzero; opacity: 1;" transform=" matrix(0.9921743448242483 0 0 0.9921743448242483 -118.16059526830233 -105.40839601162074) " stroke-linecap="round" />
  <path d="m 296.031 321.552 l 18.037 -0.858 l -0.143 -12.312 c 0 0 -6.586 -3.007 -8.303 -3.437 c -1.719 -0.429 -9.307 5.298 -9.592 7.017 c -0.286 1.717 0.0001 9.59 0.0001 9.59 z" style="stroke: none; stroke-width: 1; stroke-dasharray: none; stroke-linecap: butt; stroke-linejoin: miter; stroke-miterlimit: 10; fill: #042238; fill-rule: nonzero; opacity: 1;" transform=" matrix(0.9921743448242483 0 0 0.9921743448242483 -118.16059526830233 -105.40839601162074) " stroke-linecap="round" />
  <path d="m 293.597 292.635 c -0.285 0.429 0.287 9.161 0.287 9.161 c 0 0 7.015 -7.015 9.591 -7.015 c 0 0 9.163 3.866 10.164 6.156 l 0.716 -8.447 l -20.758 0.145 z" style="stroke: none; stroke-width: 1; stroke-dasharray: none; stroke-linecap: butt; stroke-linejoin: miter; stroke-miterlimit: 10; fill: #042238; fill-rule: nonzero; opacity: 1;" transform=" matrix(0.9921743448242483 0 0 0.9921743448242483 -118.16059526830233 -105.40839601162074) " stroke-linecap="round" />
  <path d="m 293.884 265.578 c 0 0 7.873 -6.585 10.021 -6.871 c 2.147 -0.288 8.876 4.724 9.448 6.154 c 0.573 1.434 0.716 -8.732 0.716 -8.732 l -21.187 -0.144 l 1.002 9.593 z" style="stroke: none; stroke-width: 1; stroke-dasharray: none; stroke-linecap: butt; stroke-linejoin: miter; stroke-miterlimit: 10; fill: #042238; fill-rule: nonzero; opacity: 1;" transform=" matrix(0.9921743448242483 0 0 0.9921743448242483 -118.16059526830233 -105.40839601162074) " stroke-linecap="round" />
  <rect x="340.41" y="217.81" rx="0" ry="0" width="2" height="17.46" style="stroke: none; stroke-width: 1; stroke-dasharray: none; stroke-linecap: butt; stroke-linejoin: miter; stroke-miterlimit: 10; fill: #042238; fill-rule: nonzero; opacity: 1;" transform=" matrix(0.9921743448242483 0 0 0.9921743448242483 -118.16059526830233 -105.40839601162074) "/>
  <rect x="334.11" y="227.02" rx="0" ry="0" width="1.43" height="8.11" style="stroke: none; stroke-width: 1; stroke-dasharray: none; stroke-linecap: butt; stroke-linejoin: miter; stroke-miterlimit: 10; fill: #042238; fill-rule: nonzero; opacity: 1;" transform=" matrix(0.9921743448242483 0 0 0.9921743448242483 -118.16059526830233 -105.40839601162074) "/>
  <path d="m 334.922 227.355 c 0 0 -2.005 -0.383 -2.196 -0.717 c -0.19 -0.332 2.244 -2.434 2.387 -3.005 c 0.143 -0.573 2.005 2.671 2.101 2.91 c 0.094 0.239 -2.292 0.812 -2.292 0.812 z" style="stroke: none; stroke-width: 1; stroke-dasharray: none; stroke-linecap: butt; stroke-linejoin: miter; stroke-miterlimit: 10; fill: #042238; fill-rule: nonzero; opacity: 1;" transform=" matrix(0.9921743448242483 0 0 0.9921743448242483 -118.16059526830233 -105.40839601162074) " stroke-linecap="round" />
  <path d="m 341.316 218.623 c 0 0 -2.004 -0.383 -2.195 -0.717 c -0.19 -0.334 2.242 -2.432 2.385 -3.005 c 0.144 -0.573 2.006 2.671 2.101 2.91 c 0.095 0.239 -2.291 0.812 -2.291 0.812 z" style="stroke: none; stroke-width: 1; stroke-dasharray: none; stroke-linecap: butt; stroke-linejoin: miter; stroke-miterlimit: 10; fill: #042238; fill-rule: nonzero; opacity: 1;" transform=" matrix(0.9921743448242483 0 0 0.9921743448242483 -118.16059526830233 -105.40839601162074) " stroke-linecap="round" />
  <path d="m 344.514 231.889 c 0 0 -2.005 -0.383 -2.196 -0.715 c -0.19 -0.336 2.244 -2.436 2.387 -3.007 c 0.143 -0.573 2.004 2.671 2.1 2.91 c 0.094 0.239 -2.291 0.812 -2.291 0.812 z" style="stroke: none; stroke-width: 1; stroke-dasharray: none; stroke-linecap: butt; stroke-linejoin: miter; stroke-miterlimit: 10; fill: #042238; fill-rule: nonzero; opacity: 1;" transform=" matrix(0.9921743448242483 0 0 0.9921743448242483 -118.16059526830233 -105.40839601162074) " stroke-linecap="round" />
  <path d="m 224.529 410.023 l 19.01 -51.918 c -0.272 0.407 -11 22.98 -24.72 51.918 l 5.71 0 z m 59.095 -52.299 l -15.27 0.764 l 88.628 51.535 l 88.147 0 c -24.693 -7.755 -161.505 -52.299 -161.505 -52.299 z m -81.313 0.381 l -184.325 51.918 l 86.401 0 l 114.721 -50.772 l -16.797 -1.146 z" style="stroke: none; stroke-width: 1; stroke-dasharray: none; stroke-linecap: butt; stroke-linejoin: miter; stroke-miterlimit: 10; fill: #042238; fill-rule: nonzero; opacity: 1;" transform=" matrix(0.9921743448242483 0 0 0.9921743448242483 -118.16059526830233 -105.40839601162074) " stroke-linecap="round" />
  <path d="m 57.427 317.24 c 4.817 -3.844 8.977 -8.507 14.419 -9.002 c 4.083 -0.369 6.415 -1.342 7.867 -2.176 l -0.804 -15.908 c -9.162 -5.441 -20.709 -0.192 -20.709 -0.192 l 0 0.192 l -0.773 27.086 z" style="stroke: none; stroke-width: 1; stroke-dasharray: none; stroke-linecap: butt; stroke-linejoin: miter; stroke-miterlimit: 10; fill: #042238; fill-rule: nonzero; opacity: 1;" transform=" matrix(0.9921743448242483 0 0 0.9921743448242483 -118.16059526830233 -105.40839601162074) " stroke-linecap="round" />
  <path d="m 371.046 334.438 c 0.09 0.361 0.072 0.033 -0.026 -0.675 c -0.021 0.271 -0.017 0.504 0.026 0.675 z m -20.614 -1.529 c 0 0 -0.036 -0.063 -0.102 -0.177 c -3.017 6.067 0.102 0.177 0.102 0.177 z m -111.473 23.288 l -0.092 0 c -0.217 2.778 0.092 0 0.092 0 z m 148.884 -56.118 c -0.765 -1.908 -14.125 -0.381 -14.125 -0.381 l -0.383 22.143 l -253.388 2.669 l -0.19 -22.521 l 2.194 -1.432 l -0.094 -2.578 l -2.673 -0.285 l -0.954 -25.388 l 2.672 -1.908 l -0.477 -2.958 l -2.863 -0.381 l -1.336 -29.108 l 2.481 -2.102 l 0.191 -2.767 l -2.292 0.288 c 0 0 0.095 -0.67 0 -1.336 c -0.095 -0.67 0.095 -0.48 0 -0.956 c -0.095 -0.476 0.095 -6.205 0.095 -6.205 l 2.291 -0.762 l -0.476 -1.336 l -1.718 -0.19 l -0.096 -0.668 c -0.667 -2.863 -5.726 -7.156 -5.726 -7.156 c -4.962 3.242 -5.631 8.301 -5.631 8.301 l -2.004 0.765 l 0.287 2.384 l 2.194 0.573 l 0.287 6.395 l -2.005 0.381 l 0.096 1.91 l 1.718 2.673 l -0.669 29.299 l -2.194 -0.095 l -0.096 3.149 l 1.813 1.241 l -0.381 26.435 l -1.909 0.097 l 0.096 2.098 l 1.909 1.91 l -0.287 22.713 l 1.002 0.717 l 1.832 1.729 c 3.255 5.291 5.662 11.91 4.804 19.404 c 0.38 -0.581 0.569 -2.861 0.378 -4.194 c -0.19 -1.336 1.527 -2.48 1.91 -3.054 c 0.382 -0.571 -0.191 -2.673 -0.573 -4.198 c -0.382 -1.526 -0.382 -3.628 -0.382 -5.153 c 0 -1.233 1.497 -2.469 2.676 -3.301 l 1.963 -0.11 c 1.011 0.972 2.042 3.028 2.042 3.028 l 0.382 2.48 l 0.764 3.817 l -0.572 6.873 l 1.909 -1.719 l 1.717 -2.101 c 0 0 -0.572 -4.58 -0.764 -5.534 c -0.19 -0.954 0.382 -4.198 0.382 -4.198 c 0 0 1.91 -2.482 2.482 -2.673 c 0.573 -0.19 2.863 -0.19 3.817 0 c 0.955 0.19 2.1 3.627 2.1 3.627 l -0.191 6.298 l -0.19 7.827 l 5.536 -0.381 c 0 0 0.19 -2.675 0.19 -4.01 c 0 -1.337 0.191 -4.581 0.573 -6.109 c 0.381 -1.525 3.245 -3.244 4.009 -3.054 c 0.763 0.192 2.862 2.673 3.436 2.292 c 0.572 -0.383 2.481 -2.482 4.2 0.19 c 1.717 2.671 0.572 5.344 0.572 5.344 l 3.245 0.192 c 0 0 0.382 -2.102 2.862 -4.392 c 2.482 -2.291 4.391 0.573 4.391 0.573 l 1.528 6.681 l -2.483 10.499 l 3.628 5.152 l 7.062 -0.19 c 0 0 -0.191 -12.98 0.19 -16.034 c 0.381 -3.054 1.527 -8.208 4.581 -6.107 c 3.054 2.1 2.672 8.207 2.672 8.207 l 0.573 14.315 l 36.839 -1.718 l 23.577 0.192 c 0.024 -0.311 0.054 -0.686 0.092 -1.146 c 0.382 -4.581 5.727 -3.817 5.727 -3.817 c 4.199 0 5.344 4.58 5.344 4.58 l 38.176 -1.907 l 0 3.817 l 24.05 -1.145 c 0 0 -1.146 -4.963 -0.382 -16.417 c 0.765 -11.452 7.254 -3.054 7.254 -3.054 c 1.145 -7.635 5.344 -3.817 5.344 -3.817 c 1.527 -6.107 14.89 -0.383 14.89 -0.383 c 4.246 -10.97 10.132 -1.601 10.969 -0.177 c 0.147 -0.295 0.304 -0.611 0.482 -0.967 c 3.817 -7.637 7.635 -2.291 8.017 -4.2 c 0.383 -1.908 8.018 -2.29 9.544 -2.29 c 1.165 0 2.33 6.22 2.646 8.488 c 0.167 -2.16 2.274 -7.131 4.988 -8.488 c 3.055 -1.527 4.582 8.017 4.582 8.017 l 3.436 -1.907 c 0 0 1.527 -7.256 2.672 -8.4 c 1.146 -1.144 2.291 -1.907 2.291 -1.907 c 0 0 -0.385 -19.089 -1.148 -20.998 z" style="stroke: none; stroke-width: 1; stroke-dasharray: none; stroke-linecap: butt; stroke-linejoin: miter; stroke-miterlimit: 10; fill: #042238; fill-rule: nonzero; opacity: 1;" transform=" matrix(0.9921743448242483 0 0 0.9921743448242483 -118.16059526830233 -105.40839601162074) " stroke-linecap="round" />
</g>
  <g transform="translate(204.36 66) scale(0.8 0.8)">
   <text font-family="zwodrei - free" font-size="40" font-weight="normal" style="stroke: none; stroke-width: 1; stroke-dasharray: none; stroke-linecap: butt; stroke-linejoin: miter; stroke-miterlimit: 10; fill: #042238; fill-rule: nonzero; opacity: 1;" ><tspan x="-74.58" y="8.98" style="stroke: none; stroke-width: 0; stroke-dasharray: none; stroke-linecap: butt; stroke-linejoin: miter; stroke-miterlimit: 4; fill: #042238; fill-rule: ; opacity: 1;">E</tspan><tspan x="-53.42" y="8.98" style="stroke: none; stroke-width: 0; stroke-dasharray: none; stroke-linecap: butt; stroke-linejoin: miter; stroke-miterlimit: 4; fill: #042238; fill-rule: ; opacity: 1;">x</tspan><tspan x="-33.14" y="8.98" style="stroke: none; stroke-width: 0; stroke-dasharray: none; stroke-linecap: butt; stroke-linejoin: miter; stroke-miterlimit: 4; fill: #042238; fill-rule: ; opacity: 1;">p</tspan><tspan x="-9.1" y="8.98" style="stroke: none; stroke-width: 0; stroke-dasharray: none; stroke-linecap: butt; stroke-linejoin: miter; stroke-miterlimit: 4; fill: #042238; fill-rule: ; opacity: 1;">l</tspan><tspan x="4.26" y="8.98" style="stroke: none; stroke-width: 0; stroke-dasharray: none; stroke-linecap: butt; stroke-linejoin: miter; stroke-miterlimit: 4; fill: #042238; fill-rule: ; opacity: 1;">o</tspan><tspan x="26.82" y="8.98" style="stroke: none; stroke-width: 0; stroke-dasharray: none; stroke-linecap: butt; stroke-linejoin: miter; stroke-miterlimit: 4; fill: #042238; fill-rule: ; opacity: 1;">r</tspan><tspan x="43.14" y="8.98" style="stroke: none; stroke-width: 0; stroke-dasharray: none; stroke-linecap: butt; stroke-linejoin: miter; stroke-miterlimit: 4; fill: #042238; fill-rule: ; opacity: 1;">e</tspan><tspan x="64.18" y="8.98" style="stroke: none; stroke-width: 0; stroke-dasharray: none; stroke-linecap: butt; stroke-linejoin: miter; stroke-miterlimit: 4; fill: #042238; fill-rule: ; opacity: 1;"> </tspan></text>
 </g>
  <g transform="translate(185.29 101.05) scale(0.9 0.9)">
   <text font-family="zwodrei - free" font-size="40" font-weight="normal" style="stroke: none; stroke-width: 1; stroke-dasharray: none; stroke-linecap: butt; stroke-linejoin: miter; stroke-miterlimit: 10; fill: #042238; fill-rule: nonzero; opacity: 1;" ><tspan x="-43.94" y="8.98" style="stroke: none; stroke-width: 0; stroke-dasharray: none; stroke-linecap: butt; stroke-linejoin: miter; stroke-miterlimit: 4; fill: #042238; fill-rule: ; opacity: 1;">I</tspan><tspan x="-32.34" y="8.98" style="stroke: none; stroke-width: 0; stroke-dasharray: none; stroke-linecap: butt; stroke-linejoin: miter; stroke-miterlimit: 4; fill: #042238; fill-rule: ; opacity: 1;">n</tspan><tspan x="-8.46" y="8.98" style="stroke: none; stroke-width: 0; stroke-dasharray: none; stroke-linecap: butt; stroke-linejoin: miter; stroke-miterlimit: 4; fill: #042238; fill-rule: ; opacity: 1;">d</tspan><tspan x="13.42" y="8.98" style="stroke: none; stroke-width: 0; stroke-dasharray: none; stroke-linecap: butt; stroke-linejoin: miter; stroke-miterlimit: 4; fill: #042238; fill-rule: ; opacity: 1;">i</tspan><tspan x="24.22" y="8.98" style="stroke: none; stroke-width: 0; stroke-dasharray: none; stroke-linecap: butt; stroke-linejoin: miter; stroke-miterlimit: 4; fill: #042238; fill-rule: ; opacity: 1;">a</tspan></text>
 </g>
</svg>